<svg width="30" height="30" viewBox="0 0 30 30" fill="none" xmlns="http://www.w3.org/2000/svg">
<path d="M28.5825 1.06877C28.0137 -0.344769 26.3972 -0.471953 26.4485 1.39004C26.9758 4.68493 27.18 8.47272 26.0497 10.9592C25.2073 12.8119 27.3769 16.9852 27.3838 17.0077C31.1601 12.4198 30.1827 5.88856 28.5825 1.06877Z" fill="url(#paint0_linear_1633_24472)"/>
<path d="M28.5229 0.934389C28.3311 0.490346 27.8561 -0.00122534 27.2567 0.00361556C28.1948 4.09198 28.7636 10.3689 26.8057 13.574C25.7397 15.3189 27.3774 16.9859 27.3838 17.0084C31.112 12.1974 30.1107 5.66835 28.5229 0.934389Z" fill="url(#paint1_linear_1633_24472)"/>
<path d="M3.95045 10.9592C2.82017 8.47272 3.02488 4.68493 3.55167 1.39004C3.6025 -0.471953 1.98655 -0.344769 1.4177 1.06877C-0.182536 5.88856 -1.15987 12.4198 2.61638 17.0077C2.62331 16.9852 4.79239 12.8119 3.95045 10.9592Z" fill="url(#paint2_linear_1633_24472)"/>
<path d="M3.19234 13.5744C1.23444 10.3697 1.78619 4.08971 2.72424 0.00134773C2.17989 -0.0303382 1.67667 0.503042 1.47612 0.931682C-0.184193 5.70305 -1.17816 12.3703 2.6138 17.0088C2.62859 17.0273 4.2584 15.3193 3.19234 13.5744Z" fill="url(#paint3_linear_1633_24472)"/>
<path d="M5.39935 11.8124C4.56295 9.36949 5.39935 5.47872 5.39935 5.47872C5.39935 5.47872 0.92995 8.63543 1.70442 15.3313C2.051 18.3265 8.46443 19.6067 8.46443 19.6067C8.46443 19.6067 6.39609 14.724 5.39935 11.8124Z" fill="#CCE297"/>
<path d="M3.45485 13.4504C2.61845 11.0075 5.39935 5.47872 5.39935 5.47872C5.39935 5.47872 0.92995 8.63543 1.70442 15.3313C2.051 18.3265 8.46443 19.6067 8.46443 19.6067C8.46443 19.6067 4.45159 16.362 3.45485 13.4504Z" fill="url(#paint4_linear_1633_24472)"/>
<path d="M24.6364 5.47872C24.6364 5.47872 25.4728 9.36949 24.6364 11.8124C23.6396 14.7235 21.5713 19.6062 21.5713 19.6062C21.5713 19.6062 27.9847 18.326 28.3313 15.3308C29.1053 8.63543 24.6364 5.47872 24.6364 5.47872Z" fill="#CCE297"/>
<path d="M24.6364 5.47872C24.6364 5.47872 27.4173 11.0075 26.5809 13.4504C25.5841 16.3615 21.5713 19.6062 21.5713 19.6062C21.5713 19.6062 27.9847 18.326 28.3313 15.3308C29.1053 8.63543 24.6364 5.47872 24.6364 5.47872Z" fill="url(#paint5_linear_1633_24472)"/>
<path d="M23.5735 9.14007C23.4325 8.99308 24.3004 12.3544 22.927 13.911C19.5264 17.5641 16.7151 15.479 14.9277 20.6055C14.8861 20.7252 14.722 19.0723 12.827 17.6046C11.2448 16.3794 8.00915 15.49 6.84791 13.911C5.49674 12.0745 6.37241 9.05821 6.2823 9.14007C4.99028 10.3107 3.3734 12.2303 3.78097 15.2823C4.31839 19.3068 8.10435 19.2593 9.99894 21.6058C13.2188 25.5934 11.9148 29.1216 14.9277 29.9163C15.7525 29.8547 16.6924 28.8553 17.1901 27.3771C17.7141 25.8192 18.0159 24.1169 19.5334 21.9905C21.2602 19.5709 23.4917 19.5819 24.8664 18.1428C27.133 15.7703 26.7365 12.4376 23.5735 9.14007Z" fill="url(#paint6_linear_1633_24472)"/>
<path d="M23.5711 9.14451C23.4209 9.00588 26.4102 12.7365 24.0558 15.9953C22.0877 18.1816 20.183 18.6978 18.1571 20.8432C16.1761 22.9411 16.3758 26.5938 15.0061 27.9228C14.9756 27.9523 14.3818 27.4198 14.0366 26.4609C13.3347 24.5095 12.9669 21.5311 10.966 19.9969C9.37777 18.7792 6.48736 17.1241 5.47167 15.4566C3.61912 12.4161 6.36998 9.06309 6.27987 9.14451C4.98785 10.3151 3.12514 12.3276 3.53271 15.3796C4.07013 19.4041 8.10192 19.343 9.99652 21.6895C13.2164 25.6771 11.9124 29.2052 14.9252 30C15.7501 29.9384 16.69 28.939 17.1877 27.4607C17.7117 25.9028 18.0134 24.2006 19.531 22.0741C21.2578 19.6545 23.4893 19.6656 24.864 18.2265C27.1306 15.8536 27.2378 12.5292 23.5711 9.14451Z" fill="url(#paint7_linear_1633_24472)"/>
<defs>
<linearGradient id="paint0_linear_1633_24472" x1="24.3752" y1="15.9078" x2="29.8717" y2="0.872695" gradientUnits="userSpaceOnUse">
<stop offset="0.4525" stop-color="#2B4A9F"/>
<stop offset="1" stop-color="#44A474"/>
</linearGradient>
<linearGradient id="paint1_linear_1633_24472" x1="30.1601" y1="0.80093" x2="25.5929" y2="16.4869" gradientUnits="userSpaceOnUse">
<stop stop-color="#7DAF72"/>
<stop offset="1" stop-color="#153641"/>
</linearGradient>
<linearGradient id="paint2_linear_1633_24472" x1="-0.675676" y1="15.8041" x2="4.83213" y2="0.73799" gradientUnits="userSpaceOnUse">
<stop offset="0.4246" stop-color="#2B4A9F"/>
<stop offset="1" stop-color="#44A474"/>
</linearGradient>
<linearGradient id="paint3_linear_1633_24472" x1="-1.56097" y1="6.3629" x2="6.24998" y2="10.7238" gradientUnits="userSpaceOnUse">
<stop stop-color="#70AC73"/>
<stop offset="1" stop-color="#153641"/>
</linearGradient>
<linearGradient id="paint4_linear_1633_24472" x1="1.58969" y1="8.31308" x2="9.44813" y2="18.8746" gradientUnits="userSpaceOnUse">
<stop offset="0.5196" stop-color="#3F976E"/>
<stop offset="0.6704" stop-color="#2A6356"/>
</linearGradient>
<linearGradient id="paint5_linear_1633_24472" x1="19.3204" y1="14.0224" x2="28.0104" y2="10.5197" gradientUnits="userSpaceOnUse">
<stop offset="0.5475" stop-color="#2A6356"/>
<stop offset="0.8492" stop-color="#3F976E"/>
</linearGradient>
<linearGradient id="paint6_linear_1633_24472" x1="3.71675" y1="19.5263" x2="26.3054" y2="19.5263" gradientUnits="userSpaceOnUse">
<stop stop-color="#44A474"/>
<stop offset="0.9944" stop-color="#2B4A9F"/>
</linearGradient>
<linearGradient id="paint7_linear_1633_24472" x1="3.47537" y1="19.5706" x2="26.465" y2="19.5706" gradientUnits="userSpaceOnUse">
<stop stop-color="#2B4A9F"/>
<stop offset="1" stop-color="#44A474"/>
</linearGradient>
</defs>
</svg>
