<svg width="90" height="26" viewBox="0 0 90 26" fill="none" xmlns="http://www.w3.org/2000/svg">
<path d="M0 4C0 1.79086 1.79086 0 4 0H86C88.2091 0 90 1.79086 90 4V22C90 24.2091 88.2091 26 86 26H4C1.79086 26 0 24.2091 0 22V4Z" fill="url(#paint0_linear_3_32209)"/>
<g clip-path="url(#clip0_3_32209)">
<path fill-rule="evenodd" clip-rule="evenodd" d="M24.0163 8.47656C23.9576 8.41797 23.9224 8.35938 23.9224 8.27734C23.9224 8.19531 23.9576 8.13672 24.0163 8.07813C24.1338 7.97266 24.3217 7.97266 24.4509 8.07813C24.5097 8.13672 24.5449 8.19531 24.5449 8.27734C24.5449 8.35938 24.5097 8.41797 24.4509 8.47656C24.3922 8.52344 24.31 8.55859 24.2395 8.55859C24.1573 8.57031 24.0751 8.54688 24.0163 8.47656Z" fill="white"/>
<path fill-rule="evenodd" clip-rule="evenodd" d="M23.2648 9.28516C23.2179 9.22656 23.1826 9.16797 23.1826 9.08594C23.1826 9.00391 23.2179 8.94531 23.2648 8.88672C23.3706 8.78125 23.5585 8.78125 23.6642 8.88672C23.7112 8.94531 23.7464 9.00391 23.7464 9.08594C23.7464 9.16797 23.7112 9.22656 23.6642 9.28516C23.6055 9.33203 23.5468 9.36719 23.4645 9.36719C23.3823 9.36719 23.3236 9.33203 23.2648 9.28516Z" fill="white"/>
<path fill-rule="evenodd" clip-rule="evenodd" d="M22.4426 10.0586C22.3956 10.0117 22.3604 9.94141 22.3604 9.85938C22.3604 9.77734 22.3956 9.71875 22.4426 9.66016C22.5483 9.55469 22.7362 9.55469 22.8419 9.66016C22.8889 9.70703 22.9242 9.77734 22.9242 9.85938C22.9242 9.94141 22.8889 10 22.8419 10.0586C22.7832 10.1172 22.7245 10.1406 22.6423 10.1406C22.56 10.1406 22.4896 10.1055 22.4426 10.0586Z" fill="white"/>
<path fill-rule="evenodd" clip-rule="evenodd" d="M21.6552 10.8437C21.5965 10.7969 21.5613 10.7266 21.5613 10.6445C21.5613 10.5625 21.5965 10.5039 21.6552 10.4453C21.7727 10.3398 21.9607 10.3398 22.0899 10.4453C22.1486 10.4922 22.1838 10.5625 22.1838 10.6445C22.1838 10.7266 22.1486 10.7969 22.0899 10.8437C22.0311 10.9023 21.9489 10.9258 21.8784 10.9258C21.7962 10.9258 21.7257 10.9141 21.6552 10.8437Z" fill="white"/>
<path fill-rule="evenodd" clip-rule="evenodd" d="M20.9038 11.6289C20.845 11.582 20.8215 11.5117 20.8215 11.4297C20.8215 11.3477 20.8568 11.2891 20.9038 11.2305C21.0095 11.125 21.1974 11.125 21.3031 11.2305C21.3619 11.2773 21.3854 11.3477 21.3854 11.4297C21.3854 11.5117 21.3501 11.582 21.3031 11.6289C21.2561 11.6875 21.1857 11.7109 21.1034 11.7109C21.033 11.7227 20.9507 11.6992 20.9038 11.6289Z" fill="white"/>
<path fill-rule="evenodd" clip-rule="evenodd" d="M19.9993 12.2148C19.9993 12.1328 20.0345 12.0742 20.0815 12.0156C20.1872 11.9102 20.3751 11.9102 20.4809 12.0156C20.5396 12.0742 20.5631 12.1328 20.5631 12.2148C20.5631 12.2969 20.5278 12.3555 20.4809 12.4141C20.4339 12.4609 20.3634 12.4961 20.2812 12.4961C20.199 12.4961 20.1402 12.4609 20.0815 12.4141C20.0228 12.3672 19.9993 12.2969 19.9993 12.2148Z" fill="white"/>
<path fill-rule="evenodd" clip-rule="evenodd" d="M18.5307 13.9492C18.4837 13.9023 18.4485 13.832 18.4485 13.75C18.4485 13.668 18.4837 13.6094 18.5307 13.5508C18.6364 13.4453 18.8244 13.4453 18.9301 13.5508C18.9888 13.6094 19.0123 13.668 19.0123 13.75C19.0123 13.832 18.9771 13.8906 18.9301 13.9492C18.8831 14.0078 18.8126 14.0313 18.7304 14.0313C18.6599 14.043 18.5894 14.0195 18.5307 13.9492Z" fill="white"/>
<path fill-rule="evenodd" clip-rule="evenodd" d="M17.7202 14.7344C17.6615 14.6875 17.6262 14.6172 17.6262 14.5352C17.6262 14.4531 17.6615 14.3945 17.7202 14.3359C17.8377 14.2305 18.0256 14.2305 18.1548 14.3359C18.2135 14.3945 18.2488 14.4531 18.2488 14.5352C18.2488 14.6172 18.2135 14.6758 18.1548 14.7344C18.0961 14.793 18.0138 14.8164 17.9434 14.8164C17.8494 14.8281 17.7789 14.793 17.7202 14.7344Z" fill="white"/>
<path fill-rule="evenodd" clip-rule="evenodd" d="M16.9567 15.5313C16.9098 15.4844 16.8745 15.4141 16.8745 15.332C16.8745 15.25 16.9098 15.1797 16.9567 15.1328C17.0625 15.0273 17.2504 15.0273 17.3561 15.1328C17.4031 15.1797 17.4383 15.25 17.4383 15.332C17.4383 15.4141 17.4031 15.4727 17.3561 15.5313C17.2974 15.5898 17.2386 15.6133 17.1564 15.6133C17.0742 15.6133 17.0272 15.5781 16.9567 15.5313Z" fill="white"/>
<path fill-rule="evenodd" clip-rule="evenodd" d="M16.1696 16.3164C16.1109 16.2695 16.0874 16.1992 16.0874 16.1172C16.0874 16.0352 16.1226 15.9766 16.1696 15.918C16.2753 15.8125 16.4633 15.8125 16.569 15.918C16.616 15.9766 16.6512 16.0352 16.6512 16.1172C16.6512 16.1992 16.616 16.2695 16.569 16.3164C16.5103 16.375 16.4515 16.3984 16.3693 16.3984C16.2988 16.3984 16.2166 16.375 16.1696 16.3164Z" fill="white"/>
<path fill-rule="evenodd" clip-rule="evenodd" d="M15.3591 17.1016C15.3004 17.0547 15.2651 16.9844 15.2651 16.9023C15.2651 16.8203 15.3004 16.7617 15.3591 16.7031C15.4766 16.5977 15.6645 16.5977 15.7702 16.7031C15.829 16.7617 15.8642 16.8203 15.8642 16.9023C15.8642 16.9844 15.829 17.0547 15.7702 17.1016C15.7115 17.1484 15.6293 17.1836 15.5588 17.1836C15.4766 17.1836 15.4061 17.1602 15.3591 17.1016Z" fill="white"/>
<path fill-rule="evenodd" clip-rule="evenodd" d="M14.5839 17.8867C14.5252 17.8281 14.5017 17.7695 14.5017 17.6875C14.5017 17.6055 14.5369 17.5469 14.5839 17.4883C14.6896 17.3828 14.8776 17.3828 14.9833 17.4883C15.042 17.5469 15.0655 17.6055 15.0655 17.6875C15.0655 17.7695 15.0303 17.8281 14.9833 17.8867C14.9363 17.9336 14.8658 17.9687 14.7836 17.9687C14.7249 17.9805 14.6544 17.9453 14.5839 17.8867Z" fill="white"/>
<path fill-rule="evenodd" clip-rule="evenodd" d="M14.9833 8.47656C15.0303 8.41797 15.0655 8.35938 15.0655 8.27734C15.0655 8.19531 15.0303 8.13672 14.9833 8.07813C14.8776 7.97266 14.6896 7.97266 14.5839 8.07813C14.5252 8.13672 14.5017 8.19531 14.5017 8.27734C14.5017 8.35938 14.5369 8.41797 14.5839 8.47656C14.6309 8.52344 14.7014 8.55859 14.7836 8.55859C14.8658 8.57031 14.9363 8.54688 14.9833 8.47656Z" fill="white"/>
<path fill-rule="evenodd" clip-rule="evenodd" d="M15.7705 9.28516C15.8293 9.22656 15.8645 9.16797 15.8645 9.08594C15.8645 9.00391 15.8293 8.94531 15.7705 8.88672C15.6531 8.78125 15.4651 8.78125 15.3359 8.88672C15.2772 8.94531 15.2419 9.00391 15.2419 9.08594C15.2419 9.16797 15.2772 9.22656 15.3359 9.28516C15.3946 9.33203 15.4769 9.36719 15.5473 9.36719C15.6296 9.35547 15.7118 9.33203 15.7705 9.28516Z" fill="white"/>
<path fill-rule="evenodd" clip-rule="evenodd" d="M16.569 10.0586C16.616 10.0117 16.6512 9.94141 16.6512 9.85938C16.6512 9.77734 16.616 9.71875 16.569 9.66016C16.4633 9.55469 16.2753 9.55469 16.1696 9.66016C16.1226 9.70703 16.0874 9.77734 16.0874 9.85938C16.0874 9.94141 16.1226 10 16.1696 10.0586C16.2284 10.1172 16.2871 10.1406 16.3693 10.1406C16.4398 10.1406 16.5103 10.1055 16.569 10.0586Z" fill="white"/>
<path fill-rule="evenodd" clip-rule="evenodd" d="M17.3561 10.8437C17.4031 10.7969 17.4383 10.7266 17.4383 10.6445C17.4383 10.5625 17.4031 10.5039 17.3561 10.4453C17.2504 10.3398 17.0625 10.3398 16.9567 10.4453C16.9098 10.4922 16.8745 10.5625 16.8745 10.6445C16.8745 10.7266 16.9098 10.7969 16.9567 10.8437C17.0155 10.9023 17.0742 10.9258 17.1564 10.9258C17.2269 10.9258 17.2974 10.9141 17.3561 10.8437Z" fill="white"/>
<path fill-rule="evenodd" clip-rule="evenodd" d="M18.1313 11.6289C18.19 11.582 18.2253 11.5117 18.2253 11.4297C18.2253 11.3477 18.19 11.2891 18.1313 11.2305C18.0256 11.125 17.8259 11.125 17.7202 11.2305C17.6615 11.2773 17.6262 11.3477 17.6262 11.4297C17.6262 11.5117 17.6615 11.582 17.7202 11.6289C17.7789 11.6875 17.8611 11.7109 17.9316 11.7109C18.0021 11.7227 18.0843 11.6992 18.1313 11.6289Z" fill="white"/>
<path fill-rule="evenodd" clip-rule="evenodd" d="M19.0123 12.2148C19.0123 12.1328 18.9771 12.0742 18.9301 12.0156C18.8244 11.9102 18.6364 11.9102 18.5307 12.0156C18.472 12.0742 18.4485 12.1328 18.4485 12.2148C18.4485 12.2969 18.4837 12.3555 18.5307 12.4141C18.5777 12.4609 18.6482 12.4961 18.7304 12.4961C18.8126 12.4961 18.8714 12.4609 18.9301 12.4141C18.9888 12.3672 19.0123 12.2969 19.0123 12.2148Z" fill="white"/>
<path fill-rule="evenodd" clip-rule="evenodd" d="M19.7172 13.2109C19.7759 13.1523 19.7994 13.0937 19.7994 13.0117C19.7994 12.9297 19.7642 12.8711 19.7172 12.8125C19.6115 12.707 19.4235 12.707 19.3178 12.8125C19.2591 12.8711 19.2356 12.9297 19.2356 13.0117C19.2356 13.0937 19.2708 13.1523 19.3178 13.2109C19.3648 13.2578 19.4353 13.293 19.5175 13.293C19.5997 13.293 19.6702 13.2578 19.7172 13.2109Z" fill="white"/>
<path fill-rule="evenodd" clip-rule="evenodd" d="M20.5044 13.9492C20.5631 13.9023 20.5983 13.832 20.5983 13.75C20.5983 13.668 20.5631 13.6094 20.5044 13.5508C20.3869 13.4453 20.199 13.4453 20.0932 13.5508C20.0345 13.6094 19.9993 13.668 19.9993 13.75C19.9993 13.832 20.0345 13.8906 20.0932 13.9492C20.152 14.0078 20.2342 14.0313 20.3047 14.0313C20.3634 14.043 20.4456 14.0195 20.5044 13.9492Z" fill="white"/>
<path fill-rule="evenodd" clip-rule="evenodd" d="M21.3031 14.7344C21.3501 14.6875 21.3854 14.6172 21.3854 14.5352C21.3854 14.4531 21.3501 14.3945 21.3031 14.3359C21.1974 14.2305 21.0095 14.2305 20.9038 14.3359C20.8568 14.3945 20.8215 14.4531 20.8215 14.5352C20.8215 14.6172 20.8568 14.6758 20.9038 14.7344C20.9625 14.793 21.0212 14.8164 21.1034 14.8164C21.1622 14.8281 21.2444 14.793 21.3031 14.7344Z" fill="white"/>
<path fill-rule="evenodd" clip-rule="evenodd" d="M22.0898 15.5313C22.1367 15.4844 22.172 15.4141 22.172 15.332C22.172 15.25 22.1367 15.1797 22.0898 15.1328C21.984 15.0273 21.7961 15.0273 21.6904 15.1328C21.6434 15.1797 21.6082 15.25 21.6082 15.332C21.6082 15.4141 21.6434 15.4727 21.6904 15.5313C21.7491 15.5898 21.8078 15.6133 21.8901 15.6133C21.9723 15.6133 22.031 15.5781 22.0898 15.5313Z" fill="white"/>
<path fill-rule="evenodd" clip-rule="evenodd" d="M22.83 16.3164C22.8887 16.2695 22.9122 16.1992 22.9122 16.1172C22.9122 16.0352 22.877 15.9766 22.83 15.918C22.7243 15.8125 22.5363 15.8125 22.4306 15.918C22.3836 15.9766 22.3484 16.0352 22.3484 16.1172C22.3484 16.1992 22.3836 16.2695 22.4306 16.3164C22.4893 16.375 22.5481 16.3984 22.6303 16.3984C22.7008 16.3984 22.783 16.375 22.83 16.3164Z" fill="white"/>
<path fill-rule="evenodd" clip-rule="evenodd" d="M23.6642 17.1016C23.7229 17.0547 23.7464 16.9844 23.7464 16.9023C23.7464 16.8203 23.7112 16.7617 23.6642 16.7031C23.5585 16.5977 23.3706 16.5977 23.2648 16.7031C23.2061 16.7617 23.1826 16.8203 23.1826 16.9023C23.1826 16.9844 23.2179 17.0547 23.2648 17.1016C23.3118 17.1484 23.3823 17.1836 23.4645 17.1836C23.5468 17.1836 23.6172 17.1602 23.6642 17.1016Z" fill="white"/>
<path fill-rule="evenodd" clip-rule="evenodd" d="M24.4511 17.8867C24.5099 17.8281 24.5451 17.7695 24.5451 17.6875C24.5451 17.6055 24.5099 17.5469 24.4511 17.4883C24.3337 17.3828 24.1457 17.3828 24.04 17.4883C23.9813 17.5469 23.946 17.6055 23.946 17.6875C23.946 17.7695 23.9813 17.8281 24.04 17.8867C24.0987 17.9336 24.181 17.9687 24.2514 17.9687C24.3102 17.9805 24.3807 17.9453 24.4511 17.8867Z" fill="white"/>
<path fill-rule="evenodd" clip-rule="evenodd" d="M16.8511 8.69922C17.6499 8.17187 18.5308 7.92578 19.5058 7.91406C20.4572 7.91406 21.3382 8.17187 22.1604 8.69922L23.8519 7.01172C22.5246 6.00391 21.0915 5.5 19.5058 5.5C17.92 5.5 16.4635 6.00391 15.1714 7.01172L16.8511 8.69922Z" fill="white"/>
<path fill-rule="evenodd" clip-rule="evenodd" d="M15.1597 15.625C14.6194 14.8047 14.361 13.9375 14.361 13C14.361 12.0508 14.6194 11.1719 15.1597 10.375L13.48 8.69922C12.4933 9.98828 12 11.418 12 13.0117C12 14.582 12.4933 16.0234 13.4918 17.3359L15.1597 15.625Z" fill="white"/>
<path fill-rule="evenodd" clip-rule="evenodd" d="M22.1487 17.3008C21.35 17.8398 20.469 18.1211 19.5175 18.1328C18.5426 18.1328 17.6499 17.875 16.8511 17.3125L15.1597 18.9883C16.4635 20.0078 17.92 20.5117 19.5175 20.5C21.1033 20.4883 22.5363 19.9727 23.8284 18.9883L22.1487 17.3008Z" fill="white"/>
<path fill-rule="evenodd" clip-rule="evenodd" d="M23.8049 10.3516C24.3453 11.1719 24.6272 12.0625 24.6037 13.0234C24.5919 13.9609 24.3218 14.8164 23.8049 15.6016L25.4964 17.2773C26.4948 15.9883 27.0117 14.5586 27.0117 12.9883C27.0234 11.3945 26.5183 9.94141 25.4964 8.64062L23.8049 10.3516Z" fill="white"/>
<path fill-rule="evenodd" clip-rule="evenodd" d="M25.5667 17.8281C26.2128 17.8281 26.7531 18.3555 26.7531 19.0117C26.7531 19.6563 26.2245 20.1953 25.5667 20.1953C24.9207 20.1953 24.3804 19.668 24.3804 19.0117C24.3804 18.3555 24.909 17.8281 25.5667 17.8281Z" fill="white"/>
<path fill-rule="evenodd" clip-rule="evenodd" d="M13.4681 17.8281C14.1141 17.8281 14.6427 18.3555 14.6427 19.0117C14.6427 19.6563 14.1141 20.1953 13.4681 20.1953C12.822 20.1953 12.2935 19.668 12.2935 19.0117C12.2935 18.3555 12.822 17.8281 13.4681 17.8281Z" fill="white"/>
<path fill-rule="evenodd" clip-rule="evenodd" d="M25.5904 5.75781C26.2364 5.75781 26.765 6.28516 26.765 6.94141C26.765 7.59766 26.2364 8.125 25.5904 8.125C24.9444 8.125 24.4158 7.59766 24.4158 6.94141C24.4158 6.28516 24.9444 5.75781 25.5904 5.75781Z" fill="white"/>
<path fill-rule="evenodd" clip-rule="evenodd" d="M13.4449 5.75781C14.091 5.75781 14.6313 6.28516 14.6313 6.92969C14.6313 7.57422 14.1027 8.10156 13.4449 8.10156C12.7989 8.10156 12.2585 7.57422 12.2585 6.92969C12.2585 6.28516 12.7871 5.75781 13.4449 5.75781Z" fill="white"/>
</g>
<path d="M35.84 8.572H42.368V9.988H37.496V12.196H41.804V13.528H37.496V16.048H42.476V17.5H35.84V8.572ZM44.8156 8.572H46.3516V17.5H44.8156V8.572ZM50.3125 12.244H50.3485C50.7565 11.412 51.3685 10.996 52.1845 10.996C52.3685 10.996 52.5045 11.016 52.5925 11.056V12.424H52.5445C52.4165 12.392 52.2765 12.376 52.1245 12.376C51.6205 12.368 51.2005 12.532 50.8645 12.868C50.5285 13.196 50.3605 13.668 50.3605 14.284V17.5H48.8365V11.092H50.3125V12.244ZM57.4505 17.692C56.9545 17.692 56.5025 17.604 56.0945 17.428C55.6945 17.252 55.3505 17.012 55.0625 16.708C54.7825 16.404 54.5625 16.048 54.4025 15.64C54.2505 15.224 54.1745 14.78 54.1745 14.308C54.1745 13.828 54.2505 13.384 54.4025 12.976C54.5625 12.56 54.7825 12.2 55.0625 11.896C55.3505 11.592 55.6945 11.356 56.0945 11.188C56.5025 11.012 56.9545 10.924 57.4505 10.924C57.9465 10.924 58.3945 11.012 58.7945 11.188C59.1945 11.356 59.5345 11.592 59.8145 11.896C60.1025 12.2 60.3225 12.56 60.4745 12.976C60.6265 13.384 60.7025 13.828 60.7025 14.308C60.7025 14.78 60.6265 15.224 60.4745 15.64C60.3225 16.048 60.1025 16.404 59.8145 16.708C59.5345 17.012 59.1945 17.252 58.7945 17.428C58.3945 17.604 57.9465 17.692 57.4505 17.692ZM57.4385 16.54C57.7185 16.54 57.9625 16.484 58.1705 16.372C58.3865 16.26 58.5665 16.104 58.7105 15.904C58.8545 15.704 58.9625 15.468 59.0345 15.196C59.1145 14.924 59.1545 14.628 59.1545 14.308C59.1545 13.988 59.1145 13.692 59.0345 13.42C58.9625 13.14 58.8545 12.9 58.7105 12.7C58.5665 12.492 58.3865 12.332 58.1705 12.22C57.9625 12.108 57.7185 12.052 57.4385 12.052C57.1585 12.052 56.9105 12.108 56.6945 12.22C56.4785 12.332 56.2985 12.492 56.1545 12.7C56.0105 12.9 55.9025 13.14 55.8305 13.42C55.7585 13.692 55.7225 13.988 55.7225 14.308C55.7225 14.628 55.7585 14.924 55.8305 15.196C55.9025 15.468 56.0105 15.704 56.1545 15.904C56.2985 16.104 56.4785 16.26 56.6945 16.372C56.9105 16.484 57.1585 16.54 57.4385 16.54ZM64.3438 12.028H64.3798C64.5878 11.668 64.8558 11.396 65.1838 11.212C65.5198 11.02 65.9158 10.924 66.3718 10.924C67.0678 10.924 67.6078 11.124 67.9918 11.524C68.3838 11.916 68.5798 12.46 68.5798 13.156V17.5H67.0558V13.408C67.0558 13.024 66.9478 12.724 66.7318 12.508C66.5238 12.292 66.2238 12.184 65.8318 12.184C65.6158 12.184 65.4198 12.224 65.2438 12.304C65.0678 12.376 64.9158 12.484 64.7878 12.628C64.6598 12.764 64.5598 12.928 64.4878 13.12C64.4158 13.312 64.3798 13.52 64.3798 13.744V17.5H62.8558V11.092H64.3438V12.028ZM73.4623 17.704C73.0383 17.704 72.6543 17.628 72.3103 17.476C71.9663 17.316 71.6743 17.088 71.4343 16.792C71.1943 16.496 71.0063 16.14 70.8703 15.724C70.7423 15.3 70.6783 14.828 70.6783 14.308C70.6783 13.796 70.7463 13.332 70.8823 12.916C71.0183 12.5 71.2103 12.144 71.4583 11.848C71.7063 11.552 71.9983 11.324 72.3343 11.164C72.6783 11.004 73.0543 10.924 73.4623 10.924C73.9103 10.924 74.2983 11.024 74.6263 11.224C74.9543 11.416 75.2223 11.68 75.4303 12.016H75.4543C75.4383 11.84 75.4263 11.636 75.4183 11.404C75.4103 11.164 75.4063 10.924 75.4063 10.684V8.572H76.9303V17.5H75.4543V16.564H75.4303C75.2303 16.94 74.9623 17.224 74.6263 17.416C74.2903 17.608 73.9023 17.704 73.4623 17.704ZM73.7743 16.456C74.0543 16.456 74.2983 16.404 74.5063 16.3C74.7223 16.196 74.8983 16.048 75.0343 15.856C75.1783 15.664 75.2863 15.436 75.3583 15.172C75.4303 14.908 75.4663 14.62 75.4663 14.308C75.4663 13.988 75.4303 13.696 75.3583 13.432C75.2863 13.16 75.1783 12.928 75.0343 12.736C74.8983 12.536 74.7223 12.384 74.5063 12.28C74.2983 12.168 74.0543 12.112 73.7743 12.112C73.5183 12.112 73.2903 12.168 73.0903 12.28C72.8983 12.384 72.7383 12.536 72.6103 12.736C72.4823 12.928 72.3863 13.16 72.3223 13.432C72.2583 13.696 72.2263 13.984 72.2263 14.296C72.2263 14.936 72.3543 15.456 72.6103 15.856C72.8663 16.256 73.2543 16.456 73.7743 16.456Z" fill="white"/>
<defs>
<linearGradient id="paint0_linear_3_32209" x1="-0.181144" y1="241.797" x2="90.1812" y2="241.797" gradientUnits="userSpaceOnUse">
<stop stop-color="#46A273"/>
<stop offset="0.00558659" stop-color="#46A273"/>
<stop offset="1" stop-color="#133641"/>
</linearGradient>
<clipPath id="clip0_3_32209">
<rect width="15" height="15" fill="white" transform="translate(12 5.5)"/>
</clipPath>
</defs>
</svg>
